<svg width="183" height="148" viewBox="0 0 183 148" fill="none" xmlns="http://www.w3.org/2000/svg">
<path d="M0 18C0 8.05887 8.05888 0 18 0H137C162.405 0 183 20.5949 183 46V130C183 139.941 174.941 148 165 148H18C8.05888 148 0 139.941 0 130V18Z" fill="#E0E9FF"/>
<path opacity="0.4" d="M126.415 11.8124C126.45 11.815 126.6 11.7693 126.663 11.7633C126.603 11.6788 126.287 11.8032 126.415 11.8124ZM130.239 20.8557C130.212 20.8086 130.185 20.7614 130.157 20.7143C130.267 20.742 130.399 20.8274 130.505 20.8419C130.523 20.8442 130.509 20.7371 130.548 20.7499C130.587 20.7627 130.542 20.8807 130.592 20.9182C130.648 20.96 130.955 20.9997 131.051 21.0442C131.41 21.212 131.746 21.4393 132.127 21.5429C131.788 21.2927 132.2 21.362 132.29 21.4456C132.31 21.4643 132.218 21.6904 132.614 21.7904C132.786 21.8335 132.801 21.656 132.897 21.6407C132.943 21.6335 133.007 21.6623 133.113 21.7682C132.711 21.8639 133.02 21.9738 133.254 22.0847C133.295 22.1033 133.641 22.2156 133.782 22.292C133.83 22.318 133.852 22.4683 133.916 22.5015C133.96 22.5243 134.024 22.4769 134.089 22.5114C134.394 22.6715 134.697 22.8247 135.016 22.9596C134.986 22.578 135.222 22.908 135.244 22.9019C135.359 22.8612 135.037 22.6682 135.195 22.6864C135.376 22.7897 135.555 22.8943 135.734 23.0011C135.564 22.9564 135.799 23.3472 135.915 23.2891C135.744 23.5205 136.865 23.5309 136.946 23.6947C136.962 23.7279 136.713 23.7442 137.152 23.9297C137.2 23.9499 137.23 23.867 137.248 23.8877C137.26 23.9002 137.195 24.1811 137.365 24.1072C137.427 24.081 137.319 23.8015 137.732 24.1426C137.4 24.262 138.269 24.6591 138.454 24.7031C138.403 24.7142 138.353 24.7254 138.302 24.7368C138.504 24.7494 138.475 24.8438 138.51 24.861C138.652 24.9306 138.886 24.9754 139.001 25.0657C139.136 25.1712 139.034 25.3078 139.236 25.3692C139.175 25.3719 139.113 25.3749 139.052 25.378C139.17 25.4491 139.287 25.5209 139.404 25.5935C139.284 25.2305 139.467 25.625 139.484 25.6436C139.512 25.6738 139.521 25.5671 139.569 25.616C139.574 25.6216 139.512 25.6838 139.59 25.7528C139.754 25.8969 139.794 25.7919 139.867 25.8475C139.874 25.853 139.801 25.896 139.916 26.0047C140.281 26.3519 139.953 25.9569 139.943 25.9371C139.932 25.911 140.278 25.762 139.858 25.5946C139.998 25.6518 140.1 25.5488 140.116 25.5558C140.129 25.5621 140.318 25.7299 140.326 25.7423C140.393 25.8551 140.244 25.8645 140.252 25.8928C140.258 25.9149 140.582 26.0026 140.446 26.2703C140.736 26.1528 140.541 26.0309 140.374 25.8506C140.382 25.7857 140.629 25.908 140.64 25.9171C140.913 26.1312 140.616 26.1823 140.583 26.3368C140.565 26.4175 140.774 26.3885 140.542 26.4602C140.772 26.6674 140.7 26.4644 140.727 26.4637C140.768 26.4636 140.815 26.5743 140.831 26.5771C140.854 26.5811 140.845 26.4859 140.923 26.5171C140.935 26.5228 140.956 26.6906 140.79 26.6311C140.972 26.7549 140.89 26.8189 141.084 26.7142C140.943 27.0946 141.321 26.6149 141.382 26.6374C141.543 26.6975 141.304 26.8898 141.3 26.9059C141.281 27.0111 141.686 27.2167 141.739 27.3194C141.855 27.1355 141.476 27.0925 141.452 27.019C141.373 26.7702 141.771 27.1469 141.83 26.8424C141.833 26.9421 141.834 27.0416 141.836 27.1407C142.053 27.0984 141.968 26.9243 142.184 27.1973C142.122 27.3417 142.017 27.0198 141.98 27.1445C141.959 27.2176 142.099 27.3591 142.076 27.3878C142.049 27.4217 141.95 27.2664 141.924 27.3336C141.87 27.4774 142.456 27.8117 142.139 27.4252C142.241 27.5186 142.498 27.3622 142.525 27.5074C142.541 27.6003 141.935 27.5892 142.474 27.9762C142.581 27.8908 142.308 27.7719 142.31 27.7603C142.313 27.7428 142.568 27.5602 142.585 27.5555C142.645 27.541 143.024 28.1139 143.238 28.11C143.07 28.1896 143.585 28.4874 143.589 28.568C143.59 28.5893 143.467 28.6173 143.471 28.6372C143.499 28.7581 143.852 28.8419 143.952 28.9383C144.065 29.0453 143.982 29.0907 143.988 29.0968C144.04 29.1421 144.049 29.0631 144.077 29.0931C144.122 29.1377 144.43 29.4428 144.435 29.4672C144.436 29.4743 144.309 29.4888 144.358 29.5695C144.367 29.5836 144.454 29.498 144.604 29.7357C144.783 30.0213 144.328 29.6603 144.324 29.8428C144.611 29.885 144.467 29.9932 144.517 30.0266C144.535 30.0379 144.756 30.0537 144.858 30.1813C144.798 30.0792 144.739 29.9771 144.678 29.8753C144.778 29.9436 144.903 30.1303 144.99 30.183C145.032 30.2088 145.105 30.1042 145.169 30.1823C145.183 30.1995 145.001 30.4461 144.931 30.1667C144.832 30.2173 144.972 30.2675 144.986 30.3297C144.988 30.3393 144.869 30.4742 145.007 30.4619C145.04 30.4588 145.329 29.9948 145.359 30.6032C145.36 30.6227 145.271 30.6191 145.27 30.6392C145.27 30.6527 145.375 30.7339 145.377 30.7502C145.378 30.767 145.281 30.7624 145.281 30.7837C145.281 30.8926 145.583 30.815 145.447 30.6887C145.514 30.7144 145.582 30.7405 145.65 30.7669C145.437 30.8416 145.664 30.8751 145.713 30.9441C146.028 31.3858 145.684 31.1846 145.686 31.297C145.689 31.4767 145.909 31.1831 145.963 31.417C145.967 31.4387 145.673 31.3161 146.075 31.6748C146.031 31.6112 145.987 31.5477 145.943 31.4844C146.137 31.4048 146.108 31.71 146.117 31.7252C146.223 31.9012 146.196 31.7526 146.301 32.049C146.31 32.0754 146.388 32.0954 146.403 32.1549C146.469 32.4 146.155 31.9369 146.078 31.9707C146.041 31.9861 146.422 32.4521 146.45 32.4596C146.573 32.485 146.312 32.2243 146.44 32.2232C146.488 32.2219 146.948 32.9494 147.081 33.0707C147.237 33.2088 147.513 33.153 147.262 33.3007C147.542 33.203 147.403 33.3423 147.419 33.3621C147.621 33.6037 147.623 33.6035 147.751 33.8374C147.779 33.889 147.881 33.8897 147.88 33.914C147.88 33.9282 147.787 33.953 147.796 34.0156C147.809 34.1012 148.165 34.4719 148.228 34.4817C148.292 34.4902 148.132 34.2949 148.229 34.2945C148.334 34.4417 148.408 34.5964 148.512 34.7464C148.555 34.8087 148.585 34.7508 148.603 34.778C148.611 34.7895 148.704 35.0335 148.679 35.033C148.625 35.0302 148.225 34.3377 148.25 34.5615C148.255 34.6041 148.448 34.6666 148.295 34.7188C148.711 35.3055 149.107 35.9068 149.485 36.5278C149.389 36.1204 149.066 35.7531 148.854 35.3792C148.825 35.3276 148.708 35.1631 148.791 35.1499C149 35.4559 149.193 35.8688 149.411 36.16C149.418 36.1693 149.46 36.1056 149.491 36.1388C149.548 36.201 149.572 36.4717 149.618 36.499C149.628 36.5031 149.64 36.3387 149.713 36.3564C149.901 36.4027 149.619 36.5518 149.67 36.6373C149.71 36.702 150.089 37.1054 150.058 37.256C150.026 37.414 149.829 36.938 149.768 37.0033C149.853 37.3421 150.096 37.6275 150.231 37.9281C150.233 37.9334 150.151 37.9093 150.175 37.9784C150.217 38.0985 150.316 38.0995 150.356 38.1513C150.4 38.2072 150.489 38.4278 150.533 38.4469C150.538 38.4493 150.601 38.3775 150.6 38.3699C150.59 38.2633 150.467 38.2663 150.462 38.2583C150.442 38.2274 150.469 38.1815 150.452 38.1529C150.426 38.1059 150.375 38.0926 150.341 38.0302C150.317 37.9872 150.411 38.0036 150.388 37.9624C150.379 37.9468 150.129 37.841 150.294 37.7631C150.354 37.731 151.055 39.1055 151.064 39.2631C150.993 39.1478 150.922 39.034 150.849 38.9198C151.004 39.1491 150.997 39.4829 151.199 39.4473C151.593 40.3626 151.947 41.3011 152.257 42.2598C152.325 42.4288 152.407 42.3138 152.459 42.6047C152.402 42.537 152.345 42.4699 152.288 42.4032C152.359 42.5421 152.591 43.1848 152.596 43.2947C152.597 43.3088 152.507 43.342 152.543 43.5051C152.575 43.6499 152.651 43.6634 152.685 43.739C152.713 43.8026 152.713 43.8783 152.722 43.8971C152.729 43.9116 152.773 43.9119 152.789 43.9468C152.84 44.0572 152.699 43.9803 152.862 44.0758C152.861 44.0477 152.859 44.0195 152.858 43.9914C152.911 44.1257 153.015 44.3073 152.998 44.1002C152.995 44.0646 152.962 44.0996 152.956 44.0736C152.716 43.0583 152.997 43.8557 153.015 44.2228C153.096 44.3068 153.172 44.8316 153.186 44.8466C153.207 44.8689 153.235 44.7756 153.298 44.8881C153.312 44.911 153.412 45.6119 153.438 45.3543C153.445 45.3007 153.366 44.9672 153.352 44.8869C153.509 45.0647 153.419 45.5269 153.433 45.5764C153.486 45.7784 153.466 45.1779 153.558 45.6354C153.626 45.9884 153.495 45.6617 153.485 45.7998C153.481 45.8767 153.627 46.2734 153.519 46.2684C153.53 46.4068 153.573 46.3233 153.579 46.3401C153.585 46.3565 153.595 46.627 153.629 46.714C153.633 46.7246 153.681 46.689 153.687 46.6998C153.697 46.7209 153.722 46.983 153.719 46.9938C153.716 47.0005 153.663 46.9395 153.655 46.9655C153.647 46.9956 153.691 47.2475 153.68 47.2619C153.663 47.2818 153.635 46.9704 153.591 47.0237C153.624 47.1663 153.621 47.4011 153.595 47.4966C153.603 47.4731 153.586 47.3339 153.575 47.2858C153.506 47.3099 153.549 47.6082 153.591 47.5054C153.569 47.5708 153.547 47.5266 153.524 47.5635C153.518 47.5732 153.529 47.6655 153.519 47.6834C153.517 47.6857 153.478 47.5909 153.466 47.6101C153.445 47.6447 153.49 47.9244 153.499 47.9475C153.526 48.0121 153.519 47.7833 153.545 47.7641C153.55 47.7612 153.631 47.956 153.636 47.9591C153.691 47.9704 153.626 47.7531 153.678 47.7777C153.695 47.8314 153.711 47.8852 153.727 47.9391C153.754 47.7306 153.682 47.3481 153.728 47.2486C153.749 47.555 153.786 47.8778 153.911 47.8771C153.964 47.8767 153.983 47.7426 153.997 47.7477C154.048 47.7671 154.011 47.9537 154.014 47.9605C154.017 47.9662 154.02 47.9687 154.023 47.9688C154.023 47.9688 154.023 47.9688 154.023 47.9688C154.023 47.9688 154.023 47.9688 154.023 47.9688C154.051 47.9687 154.049 47.7029 154.061 47.6896C154.083 47.667 154.188 47.7847 154.208 47.7845C154.212 47.7803 154.221 47.5902 154.263 47.6539C154.305 47.7184 154.315 47.8854 154.319 47.8913C154.343 47.9231 154.346 47.6308 154.359 47.622C154.365 47.6173 154.415 47.774 154.427 47.7786C154.439 47.7824 154.458 47.6627 154.493 47.6152C154.52 47.5797 154.546 47.6819 154.549 47.6639C154.552 47.6509 154.538 47.3737 154.542 47.3601C154.548 47.3397 154.585 47.4039 154.593 47.3944C154.605 47.3807 154.588 47.2914 154.601 47.3028C154.613 47.311 154.742 47.6576 154.771 47.6555C154.823 47.651 154.693 47.2816 154.908 47.6244C154.91 47.6268 154.896 47.7112 154.898 47.7135C154.935 47.7654 154.992 47.494 154.983 47.8254C155.045 47.2085 155.062 47.7478 155.148 47.656C155.182 47.6203 155.198 47.38 155.203 47.3788C155.246 47.4014 155.212 47.4785 155.233 47.5042C155.245 47.5184 155.293 47.3025 155.322 47.3503C155.338 47.3751 155.329 47.6041 155.331 47.6136C155.357 47.704 155.39 47.5925 155.409 47.6122C155.422 47.6253 155.419 47.764 155.421 47.7676C155.426 47.7735 155.485 47.5845 155.506 47.5449C155.521 47.5148 155.54 47.6268 155.547 47.6059C155.59 47.4796 155.5 47.2134 155.629 47.4692C155.637 47.4849 155.63 47.5827 155.631 47.5856C155.667 47.6456 155.678 47.4654 155.711 47.4326C155.769 47.3763 155.726 47.6364 155.775 47.4199C155.803 47.5814 155.796 47.672 155.774 47.862C155.831 47.3365 155.988 47.1464 155.944 47.7333C155.955 47.5467 156.033 47.5665 156.039 47.5107C156.042 47.4759 155.98 47.2064 156.152 47.3273C156.173 47.3426 156.132 47.5082 156.182 47.4558C156.201 47.0592 156.212 47.4469 156.217 47.4473C156.326 47.4404 156.31 46.4702 156.325 46.3038C156.35 46.11 156.449 45.9292 156.451 45.8868C156.457 45.7466 156.405 45.8658 156.389 45.8356C156.373 45.8051 156.477 45.401 156.472 45.3812C156.454 45.3056 156.394 45.3882 156.391 45.3804C156.359 45.2878 156.411 44.7511 156.395 44.6032C156.435 44.6039 156.436 44.9037 156.5 44.7105C156.574 44.4849 156.401 44.4896 156.393 44.4847C156.388 43.4797 156.336 42.4782 156.236 41.4732C156.345 41.4653 156.323 42.1378 156.337 42.1503C156.427 42.2248 156.329 41.1109 156.27 40.9839C156.305 41.0823 156.339 41.1811 156.373 41.2803C156.48 41.079 156.275 40.7186 156.297 40.4501C156.305 40.3631 156.374 40.5119 156.377 40.508C156.415 40.4036 156.358 40.2619 156.305 40.3887C156.34 40.1467 156.274 40.1957 156.244 40.0227C156.243 40.0137 156.305 40.0767 156.308 39.9334C156.309 39.8661 156.259 39.5211 156.298 39.4634C156.315 39.4391 156.545 39.5651 156.372 39.6296C156.51 39.9863 156.309 39.769 156.334 39.9142C156.338 39.9364 156.429 39.8619 156.431 40.2418C156.596 40.1322 156.411 39.7353 156.42 39.658C156.445 39.4961 156.618 40.0974 156.495 40.2422C156.623 40.1586 156.518 40.2823 156.54 40.4197C156.564 40.5703 156.596 40.4955 156.605 40.5778C156.63 40.803 156.527 40.7292 156.63 40.8971C156.351 40.7709 156.628 41.2184 156.705 41.3519C156.698 41.1131 156.69 40.8761 156.679 40.6351C156.694 40.6458 156.709 40.6565 156.724 40.6672C156.716 40.605 156.707 40.5428 156.699 40.4807C156.686 40.4936 156.674 40.5064 156.662 40.5193C156.714 40.1782 156.606 40.1213 156.601 40.0955C156.549 39.7608 156.496 39.3729 156.443 39.0335C156.434 38.9825 156.532 38.9931 156.399 38.6397C156.356 38.5273 156.304 38.6587 156.291 38.5217C156.457 38.2998 156.302 38.3459 156.292 38.2964C156.266 38.1534 156.298 38.052 156.296 38.0386C156.271 37.8595 156.212 37.6035 156.179 37.4079C156.179 37.404 156.261 37.4858 156.217 37.3656C156.202 37.3224 155.852 37.0109 155.855 36.64C155.895 36.7233 155.934 36.8069 155.972 36.8907C155.925 36.7933 155.811 36.0335 155.928 36.1883C156 36.2841 155.891 36.6133 156.064 36.5872C155.965 36.3562 155.679 34.9737 155.601 34.8845C155.591 34.8722 155.562 34.9832 155.549 34.9659C155.539 34.9525 155.46 34.6393 155.426 34.6073C155.406 34.5882 155.413 34.7376 155.389 34.7345C155.373 34.7303 155.229 34.3587 155.292 34.3079C155.294 34.4131 155.401 34.6671 155.417 34.5046C155.419 34.4837 155.345 34.4098 155.347 34.3844C155.372 34.1476 155.537 34.758 155.564 34.8517C155.543 34.4354 155.252 33.8955 155.16 33.4341C155.04 33.2847 155.158 33.7346 155.041 33.5575C154.795 33.1923 155.085 33.4114 155.088 33.3955C155.114 33.2649 154.665 33.0658 154.911 32.9531C154.82 32.8217 154.806 32.8843 154.761 32.6605C154.788 32.6798 154.816 32.6993 154.843 32.7188C154.902 32.417 154.345 32.1039 154.331 32.1558C154.296 32.2896 154.512 32.4855 154.518 32.5088C154.525 32.5437 154.31 32.7484 154.666 32.9945C154.553 33.2144 154.341 32.4943 154.348 32.8641C154.288 32.6407 153.808 31.8311 153.826 31.6706C153.829 31.6508 154.03 31.632 153.85 31.4632C153.764 31.3836 153.87 31.6286 153.81 31.6024C153.644 31.5161 152.803 29.5732 152.601 29.2213C152.589 29.1982 152.54 29.2396 152.528 29.2168C152.492 29.1468 152.434 28.8446 152.34 28.737C152.582 28.9299 152.312 28.4271 152.228 28.309C152.101 28.1291 152.013 28.2037 151.945 28.1354C151.682 27.8747 151.607 27.2352 151.244 27.1451C151.46 27.0089 150.875 26.8063 150.744 26.6204C150.642 26.4733 150.629 26.1533 150.851 26.292C150.665 26.0406 150.514 25.7413 150.355 25.4927C150.328 25.4516 150.307 25.5541 150.264 25.4827C150.26 25.4759 150.314 25.42 150.278 25.3574C149.981 24.8409 150.024 25.175 149.922 25.117C149.864 25.0849 149.827 25.0574 149.803 25.0337C149.998 25.3151 150.206 25.6518 150.265 25.7385C150.082 25.7693 149.845 25.1095 149.689 24.9836C149.684 24.9793 149.626 25.0579 149.621 25.0529C149.621 25.0528 149.621 25.0527 149.621 25.0525C149.572 24.9988 149.312 24.6104 149.457 24.6129C149.495 24.6136 149.628 24.7828 149.774 24.992C149.749 24.9238 149.861 24.8977 149.857 24.8852C149.807 24.7335 149.507 24.5129 149.416 24.422C149.396 24.4009 149.448 24.3583 149.445 24.3544C149.361 24.2727 149.244 24.4376 149.321 24.2126C149.006 24.2063 149.54 24.5462 149.394 24.6151C149.287 24.6632 148.484 23.5861 148.623 23.4603C148.604 23.4707 148.574 23.4739 148.527 23.4648C148.425 23.4444 148.194 23.1484 148.176 23.0754C148.174 23.0623 148.313 22.9355 148.306 22.9241C148.287 22.8946 147.873 22.655 147.835 22.4503C147.917 22.5001 147.999 22.5503 148.081 22.601C147.703 22.1834 147.8 22.2086 147.968 22.3069C147.975 22.3134 147.986 22.3151 147.993 22.3212C148.121 22.3993 148.276 22.5108 148.288 22.5026C148.339 22.4692 147.709 21.7373 147.709 22.0001C147.71 22.0355 148.067 22.3058 147.829 22.2334C147.787 22.2206 147.618 21.9874 147.598 21.9866C147.466 21.98 147.802 22.5189 147.656 22.5558C147.643 22.3581 147.465 22.2642 147.369 22.117C147.326 22.05 147.379 21.9675 147.374 21.9592C147.291 21.8369 147.277 21.9677 147.246 21.9312C147.229 21.9115 147.179 21.5521 147.012 21.8048C146.501 20.9824 146.983 21.4583 147.371 21.887C147.32 21.6779 147.033 21.4594 146.937 21.3279C146.902 21.2804 146.994 21.2321 146.939 21.1485C146.826 20.9734 146.055 20.3938 145.851 20.2493C145.941 20.3799 145.836 20.432 145.754 20.3468C145.671 20.2615 145.84 20.2174 145.833 20.1899C145.826 20.1599 145.367 19.8414 145.309 19.7669C145.589 20.0849 145.447 20.1051 145.174 19.8811C145.193 19.9391 145.211 19.997 145.229 20.055C145.102 19.8832 144.666 19.7316 144.606 19.6167C144.597 19.5983 144.706 19.5692 144.701 19.5589C144.645 19.4599 144.311 19.3069 144.318 19.2718C144.323 19.2419 144.489 19.2773 144.469 19.2111C144.465 19.1971 144.274 19.2029 144.18 19.0876C144.145 19.0448 144.224 18.9952 144.217 18.9827C144.154 18.8781 144.116 19.0376 143.969 18.8901C143.862 18.7822 143.86 18.5955 143.665 18.5061C144.319 18.7809 143.818 18.4853 143.621 18.2645C143.59 18.2293 143.716 18.1224 143.449 18.0187C143.748 18.6107 143.226 18.0419 143.098 17.9541C143.091 17.9499 143.027 18.0352 142.965 17.992C142.96 17.9881 143.009 17.9345 142.955 17.8885C142.443 17.4542 142.743 17.7717 142.6 17.7563C142.539 17.7499 142.331 17.4788 142.26 17.4273C142.244 17.4156 142.209 17.4834 142.147 17.437C142.037 17.3548 141.979 17.2186 141.907 17.1624C141.898 17.1562 141.833 17.2556 141.711 17.1278C141.676 17.092 141.654 17.0264 141.73 17.0355C141.982 17.0671 142.233 17.4735 142.506 17.5291C142.756 17.5799 142.151 17.1457 142.118 17.1249C142.107 17.1166 142.195 17.2477 142.066 17.1745C141.957 17.112 141.877 16.8106 141.694 16.7447C141.68 16.7394 141.461 16.805 141.462 16.8175C141.463 16.8271 141.636 16.9851 141.581 17.0095C141.574 17.0121 141.453 16.9312 141.417 16.9528C141.373 16.9787 141.082 17.3257 141.05 17.3189C140.969 17.3 141.066 17.2406 141.02 17.2191C140.919 17.1721 140.529 17.0852 140.599 16.9454C140.657 16.9704 140.715 16.9956 140.773 17.021C140.485 16.8227 140.645 16.8446 140.618 16.7933C140.589 16.7381 140.531 16.8637 140.424 16.8135C140.401 16.8019 139.993 16.5242 140.029 16.4792C140.218 16.6978 140.216 16.4994 140.228 16.5032C140.275 16.5182 140.279 16.632 140.335 16.6634C140.729 16.8851 140.416 16.519 140.527 16.5412C140.565 16.5492 140.586 16.6574 140.602 16.6619C140.652 16.6769 140.707 16.5861 140.732 16.6113C140.789 16.6701 140.633 16.7505 140.634 16.7606C140.646 16.878 140.941 16.9242 140.879 16.693C140.998 16.6976 140.905 16.8739 141.016 16.85C141.237 16.8036 141.008 16.7064 140.965 16.6489C140.811 16.4418 140.712 16.4694 140.435 16.2722C140.336 16.2015 140.259 16.0439 140.213 16.0105C140.183 15.9886 139.727 16.1147 139.976 15.6486C139.836 15.6271 139.489 15.8314 139.379 15.7528C139.28 15.6817 139.403 15.5354 139.396 15.5235C139.386 15.5051 139.251 15.4476 139.219 15.4006C139.183 15.3453 139.242 15.2959 139.174 15.2261C139.004 15.0529 138.921 15.226 138.894 15.2259C138.585 15.2262 138.816 15.0399 138.772 14.9921C138.731 14.9458 137.971 14.6802 137.85 14.548C137.895 14.6123 137.939 14.6767 137.984 14.7412C137.823 14.7955 137.79 14.5636 137.696 14.7564C137.823 14.4326 137.496 14.5337 137.432 14.4941C137.406 14.4781 137.433 14.4255 137.4 14.4074C137.272 14.3361 136.954 14.2433 136.893 14.1841C136.631 13.9258 137.522 14.0895 137.59 14.1103C137.464 14.0531 136.775 13.6601 137.174 13.6559C137.236 13.6554 137.264 13.838 137.29 13.8565C137.467 13.9813 137.372 13.7851 137.393 13.78C137.428 13.7724 137.5 13.9534 137.54 13.9544C137.553 13.955 137.533 13.8067 137.719 13.8907C137.68 13.7361 137.115 13.5887 137.057 13.5332C137.037 13.5135 137.296 13.3405 136.742 13.3769C136.757 13.3569 136.772 13.3369 136.787 13.3169C136.667 13.2602 136.547 13.2045 136.427 13.1494C136.298 13.0899 136.167 13.0319 136.036 12.9754C136.043 13.038 136.144 13.1979 135.973 13.1053C135.874 13.0523 135.997 12.9668 135.989 12.9598C135.915 12.873 134.21 12.3533 133.874 12.2784C133.762 12.2444 133.473 12.0767 133.449 12.0702C133.305 12.0257 132.77 11.9814 132.67 11.9514C132.607 11.9314 132.697 11.8473 132.638 11.8415C132.582 11.8362 132.611 11.9379 132.594 11.939C132.455 11.9412 131.472 11.6768 131.208 11.7452C131.362 11.7296 132.049 12.0081 132.014 12.0738C132.008 12.082 131.813 12.1243 131.786 12.0857C131.704 12.1549 131.561 11.8888 131.434 11.9224C131.42 11.9262 131.435 12.0646 131.228 12.0648C131.157 12.0647 131.001 11.9427 130.791 12.0403C130.54 11.949 129.106 12.0547 129.039 11.9352C129.037 11.9283 129.243 11.8828 129.121 11.8289C128.958 11.7584 129.069 11.9985 128.86 12.02C128.829 12.021 128.262 12.0107 128.246 11.9994C128.094 11.8772 128.606 11.8019 128.602 11.7877C128.591 11.7482 128.176 11.7458 128.157 11.757C128.14 11.7666 128.451 11.9203 128.053 11.8773C128.103 11.8542 128.154 11.8311 128.204 11.808C128.018 11.7794 127.98 11.899 127.932 11.9088C127.785 11.9397 127.652 11.7784 127.391 12.0132C127.322 12.0749 127.413 12.1287 127.404 12.1379C127.32 12.2191 127.257 12.0261 127.126 12.186C127.117 12.1978 127.356 12.264 126.914 12.3047C126.947 12.2877 126.979 12.2706 127.012 12.2536C126.954 12.2262 126.507 12.2591 126.446 12.2755C126.268 12.3193 126.409 12.3959 126.234 12.4071C126.363 12.2582 125.826 12.3228 125.846 12.4283C125.784 12.3018 125.321 12.4869 125.11 12.532C124.977 12.5593 124.709 12.565 124.666 12.5817C124.614 12.6011 124.623 12.6799 124.529 12.7187C124.503 12.7287 124.23 12.7356 123.984 12.8763C123.937 12.9037 123.832 13.0538 123.917 13.0655C124.061 13.0869 124.347 12.9211 124.339 13.0014C124.329 13.087 123.957 13.1139 123.855 13.1488C123.391 13.303 123.654 13.3224 123.641 13.3512C123.607 13.4183 123.358 13.4694 123.348 13.4774C123.304 13.5095 123.478 13.5182 123.479 13.5545C123.48 13.6017 123.238 13.7298 123.292 13.7347C123.369 13.7428 123.591 13.6337 123.604 13.6343C123.783 13.6506 123.53 13.8039 123.46 13.8662C123.439 13.8855 123.52 13.9008 123.502 13.9082C123.24 14.0177 123.454 13.7639 123.28 13.8077C123.125 13.8471 123.321 13.8822 123.315 13.8878C123.307 13.893 123.123 13.9263 123.093 13.9548C123.079 13.9652 123.552 14.0347 123.528 14.1044C123.377 14.1067 123.226 14.1114 123.074 14.1188C123.06 14.1961 123.28 14.1133 123.302 14.1185C123.347 14.1297 123.219 14.1842 123.224 14.208C123.226 14.2229 123.372 14.2659 123.237 14.3014C123.191 14.3131 123.096 14.2692 122.928 14.3401C123.507 14.3556 123.102 14.4383 123.085 14.4641C123.067 14.4913 123.341 14.5407 123.007 14.5478C122.988 14.6951 123.012 14.5937 123.106 14.6155C123.221 14.6439 122.952 14.7013 123.377 14.6519C123.349 14.7258 123.01 14.7261 122.992 14.7327C122.976 14.7378 123.051 14.7702 123.023 14.7822C122.702 14.9166 122.922 14.8545 122.828 14.9371C122.819 14.9448 122.52 14.9704 122.747 14.9853C123.161 15.0174 123.337 14.9197 123.397 15.1466C123.091 15.2203 122.725 15.0656 122.632 15.0643C122.489 15.0569 122.636 15.1006 122.618 15.1113C122.612 15.1145 122.49 15.1065 122.488 15.1095C122.399 15.2484 123.033 15.1391 123.23 15.1772C123.176 15.1986 123.122 15.2194 123.068 15.2396C123.14 15.2459 123.212 15.2524 123.284 15.2592C122.94 15.282 123.272 15.2746 123.35 15.4219C123.368 15.4551 123.147 15.3761 123.398 15.4918C123.21 15.4889 123.269 15.5226 123.1 15.465C123.103 15.5164 123.482 15.6295 123.629 15.6841C123.099 15.6644 123.408 15.511 122.945 15.5516C122.862 15.4775 123.081 15.5175 123.063 15.5046C123 15.4594 122.848 15.4966 122.668 15.3532C122.638 15.3305 122.766 15.2772 122.579 15.2662C122.558 15.2653 122.438 15.3078 122.439 15.3114C122.455 15.3526 122.573 15.3485 122.577 15.3661C122.582 15.3829 122.45 15.3604 122.45 15.3648C122.445 15.4146 122.559 15.3952 122.542 15.4095C122.506 15.4436 122.034 15.4881 122.649 15.5367C122.139 15.4146 122.585 15.4703 122.783 15.5185C122.833 15.5308 122.845 15.565 122.916 15.5867C123.008 15.6149 123.117 15.6146 123.164 15.6279C123.215 15.6435 122.922 15.6782 123.342 15.7219C123.126 15.7684 122.751 15.6221 122.538 15.6424C122.11 15.6713 122.833 15.8187 122.906 15.8474C122.926 15.8543 122.858 15.8856 122.871 15.8909C122.893 15.8997 123.298 15.9617 123.336 16.0108C123.374 16.0595 123.188 15.9769 123.174 16.015C123.166 16.0386 123.646 16.2048 123.384 16.1614C123.204 16.1279 122.873 15.9463 122.813 16.0442C123.08 16.1172 123.345 16.1931 123.607 16.2716C123.461 16.2831 123.315 16.2914 123.169 16.2963C123.464 16.3945 123.721 16.4089 123.996 16.5632C123.317 16.5241 124.206 16.7618 124.212 16.7879C124.214 16.8026 123.944 16.853 123.901 16.8614C124.131 16.99 124.815 17.2759 124.399 17.3023C124.476 17.2901 124.642 17.4601 124.639 17.4676C124.611 17.5396 124.233 17.3308 124.29 17.4265C124.356 17.5383 124.465 17.47 124.575 17.5244C125.135 17.8059 124.935 18.19 125.491 18.3814C125.478 18.393 125.465 18.4045 125.453 18.416C126.048 18.6773 126.628 18.9261 127.206 19.1649C127.401 19.4377 127.958 19.8323 128.244 19.9499C128.302 19.9743 128.603 20.0133 128.628 20.006C128.675 19.9923 128.463 19.8785 128.574 19.8642C128.598 19.8622 129.082 20.0412 129.022 20.1292C128.966 20.1165 128.813 19.9872 128.78 19.9987C128.549 20.0848 130.032 20.6226 130.08 20.722C130.038 20.7424 129.996 20.7626 129.954 20.7827C130.049 20.8074 130.144 20.8317 130.239 20.8557ZM126.911 11.9717C126.845 11.8961 126.641 11.9861 126.53 11.9796C126.376 11.968 126.14 11.7066 126.221 11.9973C126.451 11.983 126.681 11.9745 126.911 11.9717ZM130.377 11.7176C130.206 11.7635 130.279 11.9889 130.429 11.9067C130.445 11.8976 130.609 11.6565 130.377 11.7176ZM128.697 11.795C128.704 11.7974 128.841 11.7886 128.846 11.7854C128.985 11.6992 128.569 11.7278 128.697 11.795ZM136.45 13.3844C136.295 13.3075 136.499 13.1431 136.562 13.2726C136.566 13.2808 136.461 13.3893 136.45 13.3844ZM136.334 13.3426C136.132 13.4815 136.038 12.9944 136.223 13.1136C136.241 13.1252 136.344 13.3356 136.334 13.3426ZM129.793 11.7794C129.797 11.8468 129.967 11.8204 130.04 11.8074C130.052 11.7454 129.86 11.7888 129.793 11.7794ZM133.873 12.3791C133.861 12.4367 133.312 12.2996 133.297 12.2176C133.375 12.2675 133.884 12.3241 133.873 12.3791ZM135.233 12.8764C135.216 12.8816 135.036 12.8041 135.061 12.755C135.177 12.7177 135.312 12.8521 135.233 12.8764ZM137.892 13.9806C137.895 13.9978 137.616 14.2501 138.024 14.1915C138.084 14.1832 137.96 14.0224 137.982 14.0189C138.026 14.0132 138.058 14.0159 138.081 14.0245C137.948 13.9283 137.802 13.8445 137.778 13.8568C137.667 13.9151 137.89 13.9732 137.892 13.9806ZM139.122 14.8896C139.125 14.9553 139.325 15.0277 139.378 15.03C139.387 15.0301 139.425 14.8812 139.503 14.9365C139.566 14.9811 139.394 15.0612 139.536 15.1108C139.679 15.1614 139.555 14.9691 139.57 14.9686C139.59 14.9679 139.761 15.1406 139.797 15.0593C139.824 14.9987 139.584 14.9171 139.536 14.8755C139.475 14.8219 139.611 14.7709 139.484 14.7285C139.403 14.702 139.354 14.8944 139.334 14.8947C139.318 14.8946 139.114 14.6601 139.123 14.8893C139.123 14.8894 139.122 14.8895 139.122 14.8896ZM138.116 14.0511C138.108 14.04 138.097 14.0306 138.081 14.0245C138.093 14.0332 138.105 14.0423 138.116 14.0511ZM127.353 11.9851C127.441 11.9322 127.208 11.8995 127.108 11.9679C127.1 12.0139 127.339 11.9929 127.353 11.9851ZM138.182 14.2582C138.418 14.3202 138.289 14.1821 138.116 14.0511C138.161 14.1134 138.104 14.2377 138.182 14.2582ZM131.786 12.0857C131.799 12.0741 131.811 12.0547 131.821 12.0215C131.785 12.0542 131.777 12.0734 131.786 12.0857ZM132.355 12.1133C132.513 12.2489 132.132 12.1779 132.155 12.106C132.164 12.0783 132.348 12.1077 132.355 12.1133ZM136.659 13.461C136.639 13.4644 136.755 13.8832 136.493 13.4943C136.702 13.5395 136.512 13.4188 136.527 13.3927C136.568 13.3167 136.862 13.5322 136.949 13.5302C136.944 13.695 136.727 13.4501 136.66 13.4612C136.66 13.4611 136.66 13.461 136.659 13.461ZM141.499 16.1812C141.505 16.08 141.362 16.0227 141.272 15.9731C141.267 16.0744 141.41 16.1305 141.499 16.1812ZM156.209 37.2374C156.118 36.5573 155.864 36.55 156.092 37.1228C156.097 37.1339 156.195 37.2848 156.209 37.2374ZM154.425 31.696C154.291 31.692 154.355 31.8966 154.452 32.0037C154.474 32.0278 154.628 32.0824 154.6 31.9473C154.469 32.0162 154.341 31.8511 154.425 31.696ZM138.259 14.4093C138.275 14.5352 138.499 14.5626 138.606 14.5996C138.584 14.4903 138.363 14.4233 138.259 14.4093ZM155.547 35.1227C155.52 35.0572 155.597 34.9757 155.608 34.9846C155.658 35.0244 155.622 35.1812 155.547 35.1227ZM137.632 14.1258C137.597 14.179 137.825 14.3545 137.91 14.2217C137.851 14.2057 137.655 14.0925 137.632 14.1258ZM141.311 16.1182C141.258 16.1221 141.42 16.2919 141.494 16.3021C141.524 16.2423 141.346 16.1156 141.311 16.1182ZM155.24 34.0111C155.212 33.9539 155.159 33.8026 155.191 33.7696C155.231 33.7284 155.289 33.9594 155.24 34.0111ZM156.726 45.6072C156.737 45.6144 156.83 45.368 156.814 45.2624C156.783 45.0625 156.719 45.5994 156.726 45.6072ZM155.682 35.7903C155.819 35.9534 155.679 35.768 155.771 35.7438C155.809 35.8734 155.897 36.1979 155.752 36.0051C155.723 35.9676 155.704 35.849 155.682 35.7903ZM155.603 35.6227C155.627 35.5912 155.681 35.4167 155.707 35.5405C155.719 35.5979 155.642 35.7256 155.603 35.6227ZM156.796 44.114C156.739 43.9445 156.763 44.7487 156.77 44.77C156.775 44.7818 156.78 44.7893 156.784 44.7935C156.765 44.8247 156.757 44.9768 156.802 44.9906C156.8 44.9453 156.808 44.8204 156.803 44.8064C156.801 44.8004 156.799 44.7959 156.797 44.7929C156.84 44.736 156.809 44.1474 156.796 44.114ZM156.709 42.7816C156.624 42.9965 156.783 43.0094 156.787 42.9914C156.845 42.7621 156.733 42.9225 156.727 42.9165C156.718 42.9025 156.766 42.7386 156.709 42.7823C156.709 42.7821 156.709 42.7819 156.709 42.7816ZM156.772 43.8415C156.77 43.8501 156.775 44.0193 156.777 44.026C156.828 44.1597 156.814 43.6801 156.772 43.8415ZM140.007 15.6232C140.133 15.6603 140.079 15.4995 139.986 15.4927C139.978 15.4927 139.897 15.5908 140.007 15.6232ZM155.597 35.5198C155.577 35.4962 155.318 34.8118 155.442 34.8098C155.449 34.8738 155.735 35.6586 155.597 35.5198ZM153.646 30.3687C153.703 30.4866 153.755 30.2948 153.683 30.2549C153.656 30.2402 153.632 30.339 153.646 30.3687ZM137.226 14.0996C137.135 13.9613 137.04 14.2445 137.191 14.2011C137.197 14.1994 137.229 14.105 137.226 14.0996ZM154.141 31.2856C154.028 30.8366 153.719 31.122 154.07 31.5935C154.078 31.5686 154.087 31.5438 154.095 31.5189C154.411 32.1131 154.139 31.5482 154.093 31.3865C154.076 31.3249 154.156 31.3426 154.142 31.2858C154.141 31.2857 154.141 31.2857 154.141 31.2856ZM153.339 29.7537C152.891 29.5153 153.428 30.1562 153.495 30.3906C153.5 30.1249 153.353 29.8624 153.638 30.1701C153.398 29.619 153.405 29.9024 153.386 29.8854C153.364 29.8656 153.358 29.7639 153.339 29.7537ZM153.831 30.7887C153.834 30.8153 153.963 30.9598 153.982 31.0266C154.03 30.8935 153.812 30.6099 153.831 30.7887ZM156.666 41.3648C156.614 41.3902 156.579 41.4352 156.61 41.5764C156.633 41.5267 156.649 41.4298 156.666 41.3648ZM126.715 12.3576C126.61 12.3732 126.4 12.4233 126.473 12.3439C126.481 12.3366 126.72 12.3159 126.715 12.3576ZM154.903 33.5027C154.889 33.4854 154.692 32.9597 154.831 33.1091C154.874 33.1539 155.035 33.6417 154.903 33.5027ZM155.75 36.2752C155.738 36.2301 155.703 36.0422 155.716 36.0331C155.765 36.0024 155.794 36.2385 155.75 36.2752ZM126.183 12.4883C126.168 12.4963 125.854 12.5272 125.892 12.4913C125.965 12.4209 126.233 12.4576 126.183 12.4883ZM140.295 16.0528C140.317 16.0694 140.399 15.9966 140.408 16.0004C140.428 16.0095 140.825 16.297 140.733 16.0846C140.719 16.0474 140.087 15.7328 140.001 15.7006C139.9 15.8084 140.227 15.8392 140.282 15.8896C140.292 15.8986 140.239 16.0072 140.296 16.0522C140.296 16.0524 140.296 16.0526 140.295 16.0528ZM156.666 42.1315C156.619 42.1604 156.618 42.715 156.675 42.699C156.673 42.5107 156.67 42.3206 156.666 42.1315ZM156.639 41.8537C156.596 41.7429 156.604 42.0189 156.624 42.0972C156.658 42.0925 156.646 41.8699 156.639 41.8537ZM155.248 35.3387C155.247 35.2794 155.383 35.411 155.389 35.3677C155.393 35.3399 155.325 35.2323 155.341 35.1834C155.347 35.169 155.466 35.2601 155.472 35.2973C155.482 35.3497 155.403 35.3253 155.418 35.3806C155.47 35.5639 155.561 35.7099 155.606 35.8819C155.61 35.8975 155.532 35.7937 155.568 35.9257C155.574 35.946 155.675 36.0447 155.705 36.2073C155.588 36.6294 155.855 36.8176 155.882 37.2904C155.859 37.2792 155.73 36.9619 155.723 36.9432C155.602 36.5812 155.424 35.9227 155.311 35.5369C155.282 35.438 155.34 35.4692 155.33 35.4259C155.321 35.3917 155.25 35.4632 155.248 35.3387ZM126.764 12.4024C126.702 12.4984 126.537 12.4579 126.425 12.4755C126.474 12.3904 126.653 12.4327 126.764 12.4024ZM156.309 39.4059C156.304 39.352 156.255 39.1933 156.276 39.1739C156.303 39.1487 156.358 39.382 156.309 39.4059ZM142.617 17.5146C142.62 17.5205 142.733 17.5927 142.739 17.5925C142.893 17.5797 142.553 17.3629 142.617 17.5146ZM145.156 19.4685C145.223 19.5465 145.276 19.6429 145.365 19.5891C145.307 19.5581 145.19 19.4072 145.156 19.4685ZM148.298 22.5587C148.195 22.6296 148.455 22.8006 148.5 22.8366C148.527 22.7826 148.373 22.5075 148.298 22.5587ZM156.432 41.3879C156.453 41.5654 156.338 41.5484 156.399 41.652C156.409 41.6688 156.645 41.6866 156.542 41.5058C156.523 41.4735 156.481 41.6216 156.432 41.3879ZM154.11 31.6793C154.067 31.7536 154.142 31.8785 154.184 31.9671C154.222 31.924 154.133 31.7461 154.11 31.6793ZM125.606 12.636C125.511 12.7299 125.12 12.7351 125.223 12.6671C125.238 12.6569 125.549 12.6466 125.606 12.636ZM138.509 14.9887C138.613 15.1531 138.292 15.023 138.236 14.8878C138.278 14.9154 138.502 14.9775 138.509 14.9887ZM147.534 21.8299C147.536 21.8383 147.664 21.9595 147.672 21.9621C147.839 21.9983 147.479 21.6538 147.534 21.8299ZM144.25 18.9194C144.252 19.0214 144.613 19.2345 144.733 19.2335C144.737 19.0844 144.249 18.7905 144.25 18.9194ZM156.387 40.6477C156.4 40.7757 156.427 40.8945 156.459 41.0069C156.495 40.9751 156.418 40.6548 156.387 40.6477ZM147.968 22.3069C147.975 22.3134 147.986 22.3151 147.993 22.3212C147.985 22.3162 147.976 22.3116 147.968 22.3069ZM155.895 37.8152C155.856 37.7148 155.938 37.7131 155.942 37.7189C155.984 37.791 155.939 37.9292 155.895 37.8152ZM126.619 12.5487C126.57 12.6331 126.392 12.5886 126.282 12.6197C126.321 12.5538 126.534 12.548 126.619 12.5487ZM152.966 29.4365C152.817 29.3665 152.975 29.9218 153.082 29.995C153.14 29.9721 152.988 29.4472 152.966 29.4365ZM137.969 14.9086C137.92 14.9833 137.752 14.7822 137.816 14.7665C137.856 14.7563 137.999 14.8618 137.969 14.9086ZM153.243 30.2261C153.248 30.284 153.362 30.3597 153.381 30.2998C153.404 30.2226 153.243 30.2107 153.243 30.2261ZM154.959 34.5991C154.944 34.5812 154.908 34.265 155.009 34.3603C155.078 34.4267 154.997 34.4753 155.003 34.495C155.011 34.5166 155.265 34.9439 154.959 34.5991ZM151.324 26.7505C151.364 26.8662 151.469 26.9655 151.533 27.0707C151.545 27.001 151.403 26.7551 151.324 26.7505ZM138.783 15.349C138.742 15.3657 138.032 15.0274 138.48 15.1318C138.506 15.1375 138.911 15.2931 138.783 15.349ZM156.432 41.3879C156.43 41.3656 156.425 41.3401 156.417 41.311C156.422 41.3405 156.428 41.3658 156.432 41.3879ZM156.168 39.3669C156.136 39.4172 156.092 39.2148 156.102 39.1487C156.147 39.1181 156.172 39.3599 156.168 39.3669ZM151.474 27.1234C151.486 27.2013 151.582 27.2902 151.625 27.3666C151.66 27.3246 151.534 27.1186 151.474 27.1234ZM148.462 23.1805C148.578 23.2643 148.679 23.4066 148.631 23.4542C148.641 23.4493 148.654 23.4469 148.669 23.4479C148.685 23.4491 148.759 23.5851 148.818 23.6199C149.176 23.8245 147.888 22.4178 148.473 23.3831C148.469 23.3157 148.465 23.2482 148.462 23.1805ZM143.708 18.7041C143.593 18.7249 143.479 18.5002 143.546 18.5079C143.592 18.5134 143.824 18.683 143.708 18.7041ZM146.019 20.7449C145.992 20.7399 145.871 20.5462 145.896 20.5084C146.02 20.5582 146.146 20.7666 146.019 20.7449ZM143.158 18.4132C143.11 18.3939 143.14 18.2407 143.149 18.2392C143.22 18.2278 143.271 18.4001 143.158 18.4132ZM156.178 41.0631C156.147 40.9971 156.178 40.7562 156.226 40.6947C156.214 40.6877 156.197 40.6655 156.175 40.6232C156.175 40.6233 156.175 40.6235 156.175 40.6236C156.156 40.5645 155.844 38.7319 156.143 39.9403C156.152 39.9783 156.094 39.937 156.126 40.0926C156.128 40.1028 156.169 40.0987 156.176 40.1305C156.191 40.2034 156.268 40.5941 156.245 40.6807C156.252 40.6798 156.26 40.6835 156.268 40.6931C156.337 40.7796 156.202 41.1156 156.178 41.0631ZM146.326 21.0521C146.277 21.0398 146.192 20.9265 146.221 20.8729C146.29 20.899 146.438 21.0804 146.326 21.0521ZM138.646 15.5621C138.543 15.5652 138.383 15.3764 138.467 15.3631C138.519 15.3546 138.765 15.5587 138.646 15.5621ZM145.32 20.0828C145.749 20.3719 145.408 20.1687 145.411 20.2872C145.381 20.2191 145.35 20.1509 145.32 20.0828ZM156.476 43.3261C156.463 43.2489 156.376 43.3534 156.429 43.4335C156.445 43.4587 156.484 43.3695 156.476 43.3261ZM156.386 46.8703C156.327 46.806 156.34 47.1287 156.394 47.0012C156.396 46.9953 156.388 46.8749 156.386 46.8703ZM156.441 44.4054C156.492 44.3466 156.498 44.3108 156.484 44.1613C156.471 44.3863 156.424 44.184 156.441 44.4054ZM148.623 23.4603C148.626 23.4582 148.629 23.4568 148.631 23.4542C148.628 23.4559 148.625 23.4579 148.623 23.4603ZM142.784 18.1036C142.68 18.139 142.538 18.0285 142.632 17.9856C142.641 17.9817 142.8 18.0337 142.784 18.1036ZM156.226 40.6947C156.236 40.701 156.241 40.6955 156.245 40.6807C156.238 40.6815 156.232 40.6864 156.226 40.6947ZM143.517 18.7431C143.552 18.6855 143.784 18.8334 143.788 18.8468C143.843 19.0359 143.605 18.815 143.517 18.7431ZM136.97 14.8473C136.96 14.8349 137.116 14.7129 137.139 14.7993C137.156 14.8661 137.007 14.8939 136.97 14.8473ZM156.419 44.9152C156.419 44.9981 156.417 45.1149 156.455 45.1334C156.45 45.0782 156.448 44.911 156.419 44.9152ZM156.348 46.745C156.395 46.6463 156.41 46.4236 156.41 46.282C156.356 46.2821 156.367 46.6531 156.348 46.745ZM156.23 41.2832C156.227 41.2768 156.182 41.0728 156.233 41.0916C156.309 41.1191 156.262 41.3371 156.23 41.2832ZM137.394 14.9413C137.457 15.0369 137.177 15.1071 137.143 14.9356C137.125 14.8473 137.383 14.925 137.394 14.9413ZM142.258 17.873C142.18 17.7583 142.491 17.8692 142.477 17.9687C142.425 17.9401 142.286 17.9135 142.258 17.873ZM145.607 20.6687C145.147 20.5874 145.605 20.389 145.632 20.4679C145.636 20.4791 145.618 20.671 145.607 20.6687ZM124.586 13.1214C124.531 13.1101 124.746 12.9954 124.77 13.0427C124.784 13.0725 124.62 13.1288 124.586 13.1214ZM149.803 25.0337C149.793 25.0197 149.784 25.0057 149.774 24.992C149.779 25.0044 149.788 25.0183 149.803 25.0337ZM141.107 17.513C141.539 17.3599 141.364 17.5815 141.385 17.5933C141.431 17.6192 141.588 17.6051 141.662 17.6747C141.589 17.5763 141.515 17.4781 141.441 17.3801C141.532 17.4055 142.262 17.7407 142.242 17.801C142.215 17.8838 142.025 17.7201 142.014 17.7223C142 17.725 141.839 17.8972 141.815 17.8917C141.777 17.8809 141.227 17.5196 141.107 17.513ZM145.002 20.0779C145.069 20.0996 145.14 20.0426 145.149 20.0791C145.152 20.0915 145.098 20.1586 145.111 20.1987C145.075 20.1584 145.039 20.1181 145.002 20.0779ZM140.85 16.9611C140.726 17.0103 141.053 17.1682 141.069 17.1646C141.16 17.1358 140.952 16.9206 140.85 16.9611ZM143.363 18.7221C143.349 18.7189 143.108 18.5788 143.145 18.5322C143.23 18.5392 143.533 18.7541 143.363 18.7221ZM145.139 20.2318C145.219 20.2881 145.412 20.3448 145.313 20.4291C145.313 20.429 145.313 20.4289 145.313 20.4288C145.255 20.3629 145.197 20.2973 145.139 20.2318ZM137.573 15.342C137.319 15.4572 137.512 15.2494 137.686 15.2571C137.688 15.3649 137.615 15.3234 137.573 15.342ZM136.985 15.2403C136.924 15.2535 136.473 15.0034 136.59 14.9321C136.632 14.9063 136.861 15.1217 136.876 15.1204C136.9 15.1185 136.866 14.9647 137 15.0535C136.974 15.0883 137.006 15.2358 136.985 15.2403ZM137.38 15.4013C137.15 15.472 137.241 15.1828 137.363 15.2397C137.411 15.2619 137.413 15.391 137.38 15.4013ZM138.046 15.7004C137.976 15.6967 137.805 15.6575 137.742 15.5155C137.888 15.5778 138.033 15.6411 138.178 15.7055C138.169 15.7643 138.107 15.7034 138.046 15.7002C138.046 15.7003 138.046 15.7004 138.046 15.7004ZM155.97 47.7713C155.947 47.6372 155.912 47.9465 155.918 47.9596C155.941 47.9985 155.98 47.8313 155.97 47.7713ZM123.441 14.7176C123.404 14.7352 123.378 14.7909 123.299 14.7623C123.381 14.721 123.464 14.6783 123.546 14.6343C123.604 14.7308 123.482 14.6981 123.441 14.7176ZM123.123 15.0531C123.134 15.0558 123.068 15.1922 123.216 15.1063C123.317 15.0439 122.784 14.9692 122.685 15.0258C122.792 15.0551 123.026 15.0317 123.123 15.0531ZM122.182 15.5232C122.176 15.5312 122.376 15.573 122.399 15.5698C122.522 15.5501 122.215 15.4783 122.182 15.5232ZM122.821 15.588C122.727 15.5997 122.933 15.6471 122.995 15.6416C123.002 15.6169 122.835 15.5862 122.821 15.588ZM154.265 46.4931C154.171 46.3967 154.343 46.2981 154.321 46.4546C154.32 46.462 154.269 46.4972 154.265 46.4931ZM122.377 15.6707C122.471 15.6625 122.263 15.6144 122.201 15.6178C122.195 15.638 122.362 15.6716 122.377 15.6707ZM154.058 46.4319C153.982 46.3026 154.191 46.339 154.201 46.3552C154.241 46.4221 154.185 46.6608 154.17 46.7094C154.165 46.3566 154.093 46.493 154.058 46.4319ZM154.11 45.8101C154.118 45.6847 154.198 45.9987 154.147 46.0628C154.143 46.0009 154.108 45.8456 154.11 45.8101ZM153.939 45.069C153.922 45.0039 153.872 44.8109 153.902 44.7747C153.907 44.8467 153.971 45.038 153.939 45.069ZM153.811 44.9303C153.746 44.8329 153.883 44.7947 153.859 44.9167C153.859 44.9214 153.814 44.9339 153.811 44.9303ZM153.661 44.3608C153.59 44.3005 153.717 44.2076 153.741 44.316C153.747 44.3483 153.668 44.3671 153.661 44.3608ZM153.818 46.2774C153.783 46.1818 153.856 46.0516 153.893 46.2585C153.897 46.1848 153.901 46.1112 153.905 46.0375C153.99 46.3065 153.864 46.294 153.879 46.3708C153.901 46.4784 153.999 46.4654 154.028 46.4421C153.977 46.5339 154.02 46.9125 154.03 47.1331C153.987 46.9401 153.907 46.6297 153.866 46.4421C153.855 46.3884 153.876 46.3352 153.866 46.2887C153.852 46.2147 153.82 46.2828 153.818 46.2778C153.818 46.2777 153.818 46.2776 153.818 46.2774ZM153.513 43.6102C153.404 43.4251 153.577 43.5273 153.573 43.6415C153.572 43.6465 153.515 43.6148 153.513 43.6102ZM122.107 15.9657C122.375 15.9869 122.184 15.8651 122.738 16.1093C122.506 15.9748 122.726 16.0512 122.681 16.0091C122.645 15.9762 122.507 15.9647 122.588 15.935C122.483 15.9633 122.023 15.8442 122.002 15.8478C122.002 15.8479 122.002 15.8479 122.003 15.848C121.99 15.8494 122.021 15.9585 122.107 15.9657ZM153.587 45.0998C153.411 45.0497 153.668 44.9999 153.508 44.885C153.677 44.6952 153.592 45.3553 153.767 45.421C153.637 44.7191 154 45.8734 153.68 45.4014C153.832 45.7989 153.671 45.536 153.651 45.6006C153.629 45.6695 153.7 45.8959 153.64 45.8881C153.64 45.888 153.64 45.8879 153.64 45.8877C153.622 45.7475 153.604 45.6077 153.585 45.4682C153.735 45.5949 153.651 45.312 153.528 45.2254C153.547 45.1836 153.567 45.1417 153.587 45.0998ZM153.832 45.882C153.827 45.8682 153.8 45.5611 153.828 45.579C153.851 45.6184 153.893 46.0551 153.832 45.882ZM153.971 47.2336C153.96 47.1228 153.918 46.9529 153.955 46.8914C153.968 47.0016 154.008 47.1723 153.971 47.2336ZM152.909 41.6588C152.922 41.5144 153.049 41.9256 152.959 41.8172C152.955 41.8118 152.909 41.6658 152.909 41.6588ZM153.556 44.7838C153.479 44.6488 153.654 44.6986 153.63 44.8068C153.629 44.8131 153.559 44.79 153.556 44.7838ZM122.324 16.0371C122.333 16.0734 122.719 16.1514 122.787 16.1695C122.75 16.1229 122.313 15.9954 122.324 16.0371ZM153.868 47.4307C153.725 47.2132 153.826 46.9139 153.82 46.8811C153.813 46.8489 153.765 46.9014 153.763 46.894C153.758 46.8772 153.717 46.5343 153.718 46.5178C153.719 46.5057 153.806 46.5643 153.821 46.4924C153.796 46.6317 153.899 47.2611 153.892 47.2949C153.889 47.3205 153.79 47.1303 153.868 47.4303C153.868 47.4304 153.868 47.4306 153.868 47.4307ZM153.793 46.8005C153.836 46.8852 153.81 46.6441 153.79 46.5866C153.746 46.4586 153.788 46.7894 153.793 46.8005ZM153.684 46.2242C153.673 46.1969 153.628 45.9496 153.663 45.9262C153.73 46.0403 153.71 46.2859 153.684 46.2242ZM153.178 43.5007C153.17 43.4372 153.095 43.2707 153.132 43.255C153.141 43.3182 153.215 43.4853 153.178 43.5007ZM123.609 16.7327C123.504 16.73 123.745 16.8272 123.816 16.8353C123.821 16.8089 123.619 16.7328 123.609 16.7327ZM153.209 44.7947C153.192 44.7579 153.053 43.9956 153.045 43.8886C153.1 43.9869 153.263 44.7412 153.255 44.7775C153.253 44.7879 153.211 44.7992 153.209 44.7947ZM153.494 46.452C153.459 46.5245 153.522 46.568 153.524 46.5769C153.545 46.6637 153.561 46.8457 153.599 46.8043C153.559 46.6501 153.566 46.3072 153.494 46.452ZM152.908 43.4842C152.867 43.2271 153.046 43.7069 152.971 43.6513C152.967 43.6476 152.913 43.5107 152.908 43.4842ZM153.211 44.8808C153.182 44.9404 153.366 45.6989 153.385 45.8239C153.439 45.7083 153.368 45.623 153.344 45.475C153.338 45.4351 153.371 45.4432 153.37 45.4389C153.359 45.3697 153.332 45.4243 153.324 45.3819C153.319 45.3546 153.255 44.7946 153.211 44.8808ZM153.468 46.4937C153.449 46.5375 153.512 47.0186 153.52 47.0383C153.593 47.1819 153.485 46.5296 153.468 46.4937ZM153.127 44.8183C153.053 44.9081 153.192 45.278 153.184 45.0166C153.183 44.9916 153.122 44.8914 153.127 44.8183ZM152.821 43.5248C152.815 43.5126 152.727 43.2527 152.758 43.2433C152.781 43.2789 152.889 43.6619 152.821 43.5248ZM152.75 43.6763C152.749 43.6698 152.825 43.7233 152.786 43.6008C152.783 43.5906 152.71 43.5809 152.694 43.4228C152.691 43.3907 152.724 43.3354 152.728 43.3384C152.877 43.4839 152.796 44.0005 152.75 43.6763ZM153.424 46.5045C153.396 46.4799 153.336 46.5451 153.381 46.5996C153.4 46.623 153.435 46.5763 153.424 46.5045ZM152.57 42.695C152.559 42.8559 152.412 42.3818 152.418 42.3557C152.457 42.3642 152.571 42.6786 152.57 42.695ZM123.829 17.2424C123.829 17.2424 123.829 17.2423 123.829 17.2423C123.958 17.2831 123.881 17.2034 123.887 17.2046C124.166 17.2461 124.086 17.3242 124.127 17.3549C124.216 17.4212 124.212 17.2804 124.361 17.3992C124.113 17.2128 124.342 17.3417 124.353 17.2955C124.396 17.1094 124.007 17.2542 123.881 17.1597C123.864 17.1476 123.999 17.1397 123.955 17.1047C123.808 16.9982 123.33 17.0843 123.829 17.2424ZM153.382 46.6431C153.352 46.7058 153.465 47.1732 153.478 47.048C153.481 47.0275 153.428 46.5498 153.382 46.6431ZM143.671 28.0762C143.69 28.2031 143.447 28.0935 143.458 28.0208C143.464 27.9842 143.663 28.0201 143.671 28.0762ZM142.173 27.1447C142.091 27.0515 142.221 26.7235 142.303 26.864C142.312 26.8792 142.216 27.1212 142.173 27.1447ZM147.78 33.215C147.616 33.1565 147.785 33.0676 147.838 33.1499C147.857 33.1789 147.785 33.2168 147.78 33.215ZM144.638 29.2629C144.623 29.2579 144.529 29.1383 144.57 29.1112C144.631 29.1335 144.735 29.2932 144.638 29.2629ZM147.781 33.2633C147.765 33.1809 147.962 33.2255 147.9 33.3718C147.882 33.3256 147.782 33.2717 147.781 33.2633ZM152.813 44.5613C152.844 44.4884 152.784 44.2986 152.765 44.1883C152.7 44.184 152.806 44.4812 152.813 44.5613ZM142.662 27.4029C142.632 27.2649 142.868 27.3892 142.773 27.4498C142.767 27.4517 142.662 27.4085 142.662 27.4029ZM149.966 36.941C149.975 36.842 150.17 37.0682 150.048 37.0328C150.043 37.0307 149.966 36.9464 149.966 36.941ZM150.539 38.0405C150.494 37.9846 150.375 37.7224 150.471 37.8069C150.486 37.82 150.581 38.0205 150.539 38.0405ZM124.131 17.41C124.09 17.4685 124.3 17.5417 124.33 17.541C124.343 17.5396 124.185 17.3327 124.131 17.41ZM147.267 32.5178C147.238 32.455 147.111 32.3247 147.14 32.2698C147.18 32.3433 147.375 32.4781 147.267 32.5178ZM143.058 27.7703C142.89 27.789 142.77 27.6615 142.923 27.5725C143.058 27.7135 142.797 27.6617 143.058 27.7703ZM147.925 33.6893C147.887 33.6477 147.985 33.5445 147.994 33.5464C148.083 33.5659 148.003 33.7086 147.925 33.6893ZM145.529 30.349C145.475 30.3858 145.384 30.2357 145.433 30.2278C145.449 30.2249 145.573 30.3191 145.529 30.349ZM152.145 42.2333C152.082 42.1605 152.123 42.4114 152.189 42.4762C152.263 42.5001 152.153 42.2423 152.145 42.2333ZM148.781 34.9652C148.709 35.0094 148.607 34.7517 148.728 34.8135C148.758 34.829 148.805 34.9503 148.781 34.9652ZM149.988 37.3347C149.991 37.1321 150.404 37.8195 150.204 37.6724C150.19 37.6615 149.988 37.3516 149.988 37.3347ZM150.602 38.4776C150.579 38.4512 150.349 38.545 150.497 38.6364C150.516 38.6486 150.544 38.5529 150.564 38.5613C150.577 38.566 150.731 38.8226 150.73 38.837C150.73 38.8523 150.648 38.8607 150.645 38.8768C150.643 38.8947 150.783 39.0392 150.821 39.1254C150.893 39.2882 150.839 39.3246 150.844 39.3379C150.861 39.377 150.933 39.4296 150.966 39.5092C151.136 39.9101 151.334 40.5446 151.578 40.8402C151.42 40.5623 151.367 40.275 151.27 39.9838C151.178 40.1018 151.198 39.5375 151.171 39.8718C151.153 39.7251 150.681 38.5628 150.603 38.478C150.602 38.4779 150.602 38.4778 150.602 38.4776ZM141.733 26.8955C141.709 27.0321 141.43 26.7619 141.498 26.6376C141.552 26.6562 141.736 26.8794 141.733 26.8955ZM142.869 28.2984C142.881 28.3373 142.739 28.5171 142.96 28.5672C142.961 28.5673 142.961 28.5674 142.961 28.5675C143.026 28.5824 143.021 28.5013 143.043 28.4947C143.052 28.4915 143.26 28.5342 143.17 28.4222C143.032 28.2515 143.03 28.5237 142.944 28.4452C142.933 28.4356 142.863 28.1993 142.892 28.1892C142.896 28.1879 142.925 28.2515 142.941 28.2513C143.002 28.2505 143.04 28.1875 143.047 28.1892C143.068 28.1965 143.232 28.5213 143.346 28.4854C143.384 28.4736 143.025 28.0198 142.995 28.0174C142.976 28.0154 142.836 28.1571 142.811 28.1607C142.798 28.1623 142.683 27.9535 142.648 27.9461C142.637 27.9439 142.628 27.9434 142.621 27.9435C142.692 27.9238 142.534 27.7855 142.489 27.8392C142.472 27.8609 142.589 27.9465 142.596 27.9467C142.6 27.9468 142.603 27.9462 142.606 27.946C142.53 27.9783 142.889 28.3058 142.731 28.3117C142.789 28.4495 142.835 28.1851 142.869 28.2984ZM143.269 28.8482C143.274 28.8242 143.279 28.8002 143.284 28.7762C143.423 28.9815 143.699 29.1159 143.898 29.3205C143.949 29.3722 143.795 29.394 143.887 29.4394C143.961 29.4757 144.108 29.4618 144.099 29.4154C144.097 29.4038 143.932 29.3413 143.883 29.2812C143.741 29.1034 143.862 29.0739 143.855 29.0625C143.847 29.0498 143.688 28.9973 143.635 28.9397C143.502 28.7948 143.487 28.6858 143.228 28.5572C143.287 28.7139 143.11 28.7594 143.269 28.8482ZM149.145 36.0806C149.099 36.1113 149.227 36.2367 149.249 36.2931C149.295 36.2629 149.168 36.1365 149.145 36.0806ZM131.004 20.9921C130.997 20.8578 131.345 20.977 131.223 21.0337C131.196 21.0464 131.046 21.01 131.004 20.9921ZM132.543 21.5741C132.576 21.6247 132.361 21.6308 132.397 21.5422C132.408 21.5138 132.539 21.5675 132.543 21.5741ZM145.536 31.1173C145.54 31.1264 145.648 31.2182 145.655 31.2185C145.806 31.2234 145.459 30.9129 145.536 31.1173ZM134.308 22.517C134.189 22.3707 134.668 22.5612 134.481 22.5857C134.472 22.5867 134.314 22.5239 134.308 22.517ZM134.938 22.8495C134.903 22.8272 134.723 22.7825 134.738 22.748C134.762 22.6922 134.967 22.7479 134.938 22.8495ZM147.621 33.8991C147.513 33.9356 147.726 34.0998 147.762 34.1781C147.87 34.143 147.658 33.9767 147.621 33.8991ZM146.636 32.677C147.18 33.555 147.254 33.2467 146.646 32.5981C146.583 32.6362 146.601 32.6218 146.636 32.677ZM147.432 33.7463C147.473 33.6803 147.386 33.5933 147.335 33.5309C147.3 33.5673 147.41 33.6926 147.432 33.7463ZM130.546 20.9904C130.571 21.121 130.868 21.1079 130.837 21.0442C130.829 21.0303 130.543 20.9237 130.546 20.9904ZM145.509 31.2429C145.399 31.292 145.637 31.5006 145.673 31.5046C145.819 31.519 145.505 31.2763 145.509 31.2429ZM148.355 35.1843C148.312 35.2668 148.433 35.3821 148.487 35.4682C148.525 35.3994 148.402 35.2567 148.355 35.1843ZM147.901 34.5978C147.902 34.6044 147.986 34.7188 147.993 34.7225C148.128 34.7828 147.89 34.4578 147.901 34.5978ZM123.621 17.7104C123.626 17.7147 123.734 17.7669 123.738 17.7666C123.838 17.7604 123.512 17.6066 123.621 17.7104Z" fill="white"/>
</svg>
